<?xml version="1.0" encoding="UTF-8" standalone="no"?>
<svg
   xmlns:dc="http://purl.org/dc/elements/1.1/"
   xmlns:cc="http://creativecommons.org/ns#"
   xmlns:rdf="http://www.w3.org/1999/02/22-rdf-syntax-ns#"
   xmlns:svg="http://www.w3.org/2000/svg"
   xmlns="http://www.w3.org/2000/svg"
   viewBox="0 0 1375.3333 500.40668"
   height="500.40668"
   width="1375.3333"
   xml:space="preserve"
   id="svg2"
   version="1.1"><metadata
     id="metadata8"><rdf:RDF><cc:Work
         rdf:about=""><dc:format>image/svg+xml</dc:format><dc:type
           rdf:resource="http://purl.org/dc/dcmitype/StillImage" /></cc:Work></rdf:RDF></metadata><defs
     id="defs6"><clipPath
       id="clipPath18"
       clipPathUnits="userSpaceOnUse"><path
         id="path16"
         d="M 0,375.305 H 1031.5 V 0 H 0 Z" /></clipPath></defs><g
     transform="matrix(1.3333333,0,0,-1.3333333,0,500.40667)"
     id="g10"><g
       id="g12"><g
         clip-path="url(#clipPath18)"
         id="g14"><text
           id="text22"
           style="font-variant:normal;font-weight:900;font-stretch:normal;font-size:450px;font-family:'Cooper Hewitt';-inkscape-font-specification:CooperHewitt-Heavy;writing-mode:lr-tb;fill:#545454;fill-opacity:1;fill-rule:nonzero;stroke:none"
           transform="matrix(1,0,0,-1,451.6924,9.9971)"><tspan
             id="tspan20"
             y="0"
             x="0 222.75 319.5">alt</tspan></text>
<g
           transform="translate(678.0623,322.2686)"
           id="g24"><path
             id="path26"
             style="fill:#545454;fill-opacity:1;fill-rule:nonzero;stroke:none"
             d="m 0,0 -39.117,44.155 c -2.245,2.535 -5.187,3.882 -8.278,3.777 -3.091,-0.1 -5.966,-1.629 -8.093,-4.304 -2.128,-2.676 -3.253,-6.178 -3.17,-9.863 0.084,-3.684 1.366,-7.109 3.612,-9.644 L -25.06,-9.727 -54.803,-41.436 c -2.305,-2.458 -3.669,-5.838 -3.841,-9.518 -0.171,-3.68 0.87,-7.219 2.933,-9.966 2.194,-2.922 5.341,-4.598 8.632,-4.599 h 0.002 c 2.849,0 5.591,1.249 7.718,3.516 l 39.117,41.702 c 2.405,2.565 3.811,6.241 3.856,10.087 C 3.66,-6.367 2.343,-2.645 0,0" /></g><g
           transform="translate(601.7596,363.4595)"
           id="g28"><path
             id="path30"
             style="fill:#545454;fill-opacity:1;fill-rule:nonzero;stroke:none"
             d="m 0,0 c -5.535,3.794 -12.628,1.519 -15.814,-5.074 l -39.117,-80.951 c -3.187,-6.594 -1.276,-15.047 4.258,-18.844 1.757,-1.204 3.752,-1.841 5.77,-1.841 4.134,0 7.983,2.649 10.043,6.915 L 4.257,-18.844 C 5.8,-15.65 6.208,-11.931 5.404,-8.372 4.6,-4.812 2.681,-1.839 0,0" /></g><g
           transform="translate(535.5008,356.0342)"
           id="g32"><path
             id="path34"
             style="fill:#545454;fill-opacity:1;fill-rule:nonzero;stroke:none"
             d="m 0,0 c 0.084,3.685 -1.042,7.187 -3.169,9.863 -2.128,2.676 -5.003,4.204 -8.095,4.304 -3.083,0.1 -6.031,-1.243 -8.278,-3.777 l -39.116,-44.155 c -2.343,-2.645 -3.661,-6.367 -3.615,-10.213 0.046,-3.846 1.452,-7.523 3.857,-10.087 l 39.118,-41.703 c 2.127,-2.267 4.867,-3.515 7.718,-3.515 h 10e-4 c 3.292,0 6.439,1.676 8.633,4.597 4.257,5.671 3.85,14.411 -0.909,19.485 l -29.743,31.709 29.986,33.848 C -1.366,-7.109 -0.083,-3.684 0,0" /></g><g
           transform="translate(1024.5662,42.4718)"
           id="g36"><path
             id="path38"
             style="fill:#f15a24;fill-opacity:1;fill-rule:nonzero;stroke:none"
             d="m 0,0 c 0,-19.799 -16.358,-35.849 -36.537,-35.849 -20.18,0 -36.538,16.05 -36.538,35.849 0,19.798 16.358,35.848 36.538,35.848 C -16.358,35.848 0,19.798 0,0" /></g><text
           id="text42"
           style="font-variant:normal;font-weight:900;font-stretch:normal;font-size:450px;font-family:'Cooper Hewitt';-inkscape-font-specification:CooperHewitt-Heavy;writing-mode:lr-tb;fill:#1a1a1a;fill-opacity:1;fill-rule:nonzero;stroke:none"
           transform="matrix(1,0,0,-1,-5.3203,10.4795)"><tspan
             id="tspan40"
             y="0"
             x="0 222.75">ex</tspan></text>
</g></g></g></svg>