<?xml version="1.0" encoding="UTF-8" standalone="no"?>
<svg
   xmlns:dc="http://purl.org/dc/elements/1.1/"
   xmlns:cc="http://creativecommons.org/ns#"
   xmlns:rdf="http://www.w3.org/1999/02/22-rdf-syntax-ns#"
   xmlns:svg="http://www.w3.org/2000/svg"
   xmlns="http://www.w3.org/2000/svg"
   viewBox="0 0 1375.3333 500.40668"
   height="500.40668"
   width="1375.3333"
   xml:space="preserve"
   id="svg2"
   version="1.1"><metadata
     id="metadata8"><rdf:RDF><cc:Work
         rdf:about=""><dc:format>image/svg+xml</dc:format><dc:type
           rdf:resource="http://purl.org/dc/dcmitype/StillImage" /></cc:Work></rdf:RDF></metadata><defs
     id="defs6"><clipPath
       id="clipPath18"
       clipPathUnits="userSpaceOnUse"><path
         id="path16"
         d="M 0,375.305 H 1031.5 V 0 H 0 Z" /></clipPath></defs><g
     transform="matrix(1.3333333,0,0,-1.3333333,0,500.40667)"
     id="g10"><g
       id="g12"><g
         clip-path="url(#clipPath18)"
         id="g14"><text
           id="text22"
           style="font-variant:normal;font-weight:900;font-stretch:normal;font-size:450px;font-family:'Cooper Hewitt';-inkscape-font-specification:CooperHewitt-Heavy;writing-mode:lr-tb;fill:#545454;fill-opacity:1;fill-rule:nonzero;stroke:none"
           transform="matrix(1,0,0,-1,451.6924,9.9971)"><tspan
             id="tspan20"
             y="0"
             x="0 222.75 319.5">alt</tspan></text>
<g
           transform="translate(1024.5662,42.4718)"
           id="g24"><path
             id="path26"
             style="fill:#f15a24;fill-opacity:1;fill-rule:nonzero;stroke:none"
             d="m 0,0 c 0,-19.799 -16.358,-35.849 -36.537,-35.849 -20.18,0 -36.538,16.05 -36.538,35.849 0,19.798 16.358,35.848 36.538,35.848 C -16.358,35.848 0,19.798 0,0" /></g><text
           id="text30"
           style="font-variant:normal;font-weight:900;font-stretch:normal;font-size:450px;font-family:'Cooper Hewitt';-inkscape-font-specification:CooperHewitt-Heavy;writing-mode:lr-tb;fill:#1a1a1a;fill-opacity:1;fill-rule:nonzero;stroke:none"
           transform="matrix(1,0,0,-1,-5.3203,10.4795)"><tspan
             id="tspan28"
             y="0"
             x="0 222.75">ex</tspan></text>
</g></g><text
       id="text34"
       style="font-variant:normal;font-weight:900;font-stretch:normal;font-size:62.49980164px;font-family:'Cooper Hewitt';-inkscape-font-specification:CooperHewitt-Heavy;writing-mode:lr-tb;fill:#ffffff;fill-opacity:1;fill-rule:nonzero;stroke:none"
       transform="matrix(0.70400225,0,0,-1,960.3574,18.0117)"><tspan
         id="tspan32"
         y="0"
         x="0 33.437393 41.874866">&lt; &gt;</tspan></text>
</g></svg>